<svg width="82" height="22" viewBox="0 0 82 22" fill="none" xmlns="http://www.w3.org/2000/svg">
<path d="M4.512 17.24C3.70667 17.24 3.016 17.04 2.44 16.64C1.864 16.2347 1.41867 15.688 1.104 15C0.794667 14.312 0.64 13.536 0.64 12.672C0.64 11.808 0.794667 11.032 1.104 10.344C1.41867 9.656 1.864 9.11467 2.44 8.72C3.016 8.32 3.704 8.12 4.504 8.12C5.32 8.12 6.00533 8.31733 6.56 8.712C7.11467 9.10667 7.53333 9.648 7.816 10.336C8.104 11.024 8.248 11.8027 8.248 12.672C8.248 13.5307 8.104 14.3067 7.816 15C7.53333 15.688 7.11467 16.2347 6.56 16.64C6.00533 17.04 5.32267 17.24 4.512 17.24ZM4.688 15.936C5.26933 15.936 5.74667 15.7973 6.12 15.52C6.49333 15.2373 6.768 14.8507 6.944 14.36C7.12533 13.864 7.216 13.3013 7.216 12.672C7.216 12.032 7.12533 11.4693 6.944 10.984C6.768 10.4933 6.496 10.112 6.128 9.84C5.76 9.56267 5.29333 9.424 4.728 9.424C4.14133 9.424 3.656 9.568 3.272 9.856C2.89333 10.144 2.61067 10.5333 2.424 11.024C2.24267 11.5147 2.152 12.064 2.152 12.672C2.152 13.2853 2.24533 13.84 2.432 14.336C2.61867 14.8267 2.89867 15.216 3.272 15.504C3.65067 15.792 4.12267 15.936 4.688 15.936ZM7.216 17V10.64H7.056V5.48H8.488V17H7.216ZM14.4734 17.24C13.6254 17.24 12.884 17.0533 12.2494 16.68C11.62 16.3013 11.1294 15.776 10.7774 15.104C10.4254 14.4267 10.2494 13.6373 10.2494 12.736C10.2494 11.792 10.4227 10.976 10.7694 10.288C11.116 9.59467 11.5987 9.06133 12.2174 8.688C12.8414 8.30933 13.572 8.12 14.4094 8.12C15.2787 8.12 16.0174 8.32 16.6254 8.72C17.2387 9.12 17.6974 9.69067 18.0014 10.432C18.3107 11.1733 18.444 12.056 18.4014 13.08H16.9614V12.568C16.9454 11.5067 16.7294 10.7147 16.3134 10.192C15.8974 9.664 15.2787 9.4 14.4574 9.4C13.5774 9.4 12.908 9.68267 12.4494 10.248C11.9907 10.8133 11.7614 11.624 11.7614 12.68C11.7614 13.6987 11.9907 14.488 12.4494 15.048C12.908 15.608 13.5614 15.888 14.4094 15.888C14.98 15.888 15.476 15.7573 15.8974 15.496C16.3187 15.2347 16.6494 14.8587 16.8894 14.368L18.2574 14.84C17.9214 15.6027 17.4147 16.1947 16.7374 16.616C16.0654 17.032 15.3107 17.24 14.4734 17.24ZM11.2814 13.08V11.936H17.6654V13.08H11.2814Z" fill="black"/>
<path d="M39.4 17.224C38.8453 17.224 38.368 17.136 37.968 16.96C37.5733 16.784 37.2453 16.5493 36.984 16.256C36.7227 15.9627 36.5173 15.6373 36.368 15.28C36.2187 14.9227 36.112 14.5573 36.048 14.184C35.9893 13.8107 35.96 13.4613 35.96 13.136V8.36H37.4V12.688C37.4 13.0933 37.4373 13.4853 37.512 13.864C37.5867 14.2427 37.712 14.584 37.888 14.888C38.0693 15.192 38.3093 15.432 38.608 15.608C38.912 15.784 39.2907 15.872 39.744 15.872C40.1013 15.872 40.4267 15.8107 40.72 15.688C41.0133 15.5653 41.264 15.384 41.472 15.144C41.68 14.8987 41.84 14.5893 41.952 14.216C42.064 13.8427 42.12 13.408 42.12 12.912L43.056 13.2C43.056 14.032 42.904 14.7493 42.6 15.352C42.3013 15.9547 41.8773 16.4187 41.328 16.744C40.784 17.064 40.1413 17.224 39.4 17.224ZM42.28 17V14.688H42.12V8.36H43.552V17H42.28ZM56.1199 17L56.1279 11.472C56.1279 10.8267 55.9545 10.3227 55.6079 9.96C55.2665 9.592 54.8212 9.408 54.2719 9.408C53.9519 9.408 53.6479 9.48267 53.3599 9.632C53.0719 9.776 52.8372 10.0053 52.6559 10.32C52.4745 10.6293 52.3839 11.0267 52.3839 11.512L51.6319 11.208C51.6212 10.5947 51.7465 10.0587 52.0079 9.6C52.2745 9.136 52.6372 8.776 53.0959 8.52C53.5545 8.264 54.0719 8.136 54.6479 8.136C55.5492 8.136 56.2585 8.41067 56.7759 8.96C57.2932 9.504 57.5519 10.2373 57.5519 11.16L57.5439 17H56.1199ZM45.7839 17V8.36H47.0559V10.672H47.2159V17H45.7839ZM50.9599 17L50.9679 11.528C50.9679 10.8667 50.7972 10.3493 50.4559 9.976C50.1145 9.59733 49.6612 9.408 49.0959 9.408C48.5359 9.408 48.0825 9.6 47.7359 9.984C47.3892 10.368 47.2159 10.8773 47.2159 11.512L46.4639 11.064C46.4639 10.504 46.5972 10.0027 46.8639 9.56C47.1305 9.11733 47.4932 8.77067 47.9519 8.52C48.4105 8.264 48.9305 8.136 49.5119 8.136C50.0932 8.136 50.5999 8.25867 51.0319 8.504C51.4639 8.74933 51.7972 9.10133 52.0319 9.56C52.2665 10.0133 52.3839 10.5547 52.3839 11.184L52.3759 17H50.9599ZM63.6036 17.24C62.793 17.24 62.1103 17.04 61.5556 16.64C61.001 16.2347 60.5796 15.688 60.2916 15C60.009 14.3067 59.8676 13.5307 59.8676 12.672C59.8676 11.8027 60.009 11.024 60.2916 10.336C60.5796 9.648 61.001 9.10667 61.5556 8.712C62.1156 8.31733 62.801 8.12 63.6116 8.12C64.4116 8.12 65.0996 8.32 65.6756 8.72C66.257 9.11467 66.7023 9.656 67.0116 10.344C67.321 11.032 67.4756 11.808 67.4756 12.672C67.4756 13.536 67.321 14.312 67.0116 15C66.7023 15.688 66.257 16.2347 65.6756 16.64C65.0996 17.04 64.409 17.24 63.6036 17.24ZM59.6276 17V5.48H61.0596V10.64H60.8996V17H59.6276ZM63.4276 15.936C63.9983 15.936 64.4703 15.792 64.8436 15.504C65.217 15.216 65.497 14.8267 65.6836 14.336C65.8703 13.84 65.9636 13.2853 65.9636 12.672C65.9636 12.064 65.8703 11.5147 65.6836 11.024C65.5023 10.5333 65.2196 10.144 64.8356 9.856C64.457 9.568 63.9743 9.424 63.3876 9.424C62.8276 9.424 62.3636 9.56267 61.9956 9.84C61.6276 10.112 61.353 10.4933 61.1716 10.984C60.9903 11.4693 60.8996 12.032 60.8996 12.672C60.8996 13.3013 60.9876 13.864 61.1636 14.36C61.345 14.8507 61.6223 15.2373 61.9956 15.52C62.369 15.7973 62.8463 15.936 63.4276 15.936ZM69.3894 17V5.24H70.8134V17H69.3894ZM76.9578 17.24C76.1098 17.24 75.3684 17.0533 74.7338 16.68C74.1044 16.3013 73.6138 15.776 73.2618 15.104C72.9098 14.4267 72.7338 13.6373 72.7338 12.736C72.7338 11.792 72.9071 10.976 73.2538 10.288C73.6004 9.59467 74.0831 9.06133 74.7018 8.688C75.3258 8.30933 76.0564 8.12 76.8938 8.12C77.7631 8.12 78.5018 8.32 79.1098 8.72C79.7231 9.12 80.1818 9.69067 80.4858 10.432C80.7951 11.1733 80.9284 12.056 80.8858 13.08H79.4458V12.568C79.4298 11.5067 79.2138 10.7147 78.7978 10.192C78.3818 9.664 77.7631 9.4 76.9418 9.4C76.0618 9.4 75.3924 9.68267 74.9338 10.248C74.4751 10.8133 74.2458 11.624 74.2458 12.68C74.2458 13.6987 74.4751 14.488 74.9338 15.048C75.3924 15.608 76.0458 15.888 76.8938 15.888C77.4644 15.888 77.9604 15.7573 78.3818 15.496C78.8031 15.2347 79.1338 14.8587 79.3738 14.368L80.7418 14.84C80.4058 15.6027 79.8991 16.1947 79.2218 16.616C78.5498 17.032 77.7951 17.24 76.9578 17.24ZM73.7658 13.08V11.936H80.1498V13.08H73.7658Z" fill="#FF007A"/>
<path d="M23.9729 6C21.8276 6 20 7.60403 20 9.68727C20 11.1244 20.673 12.3343 21.5648 13.3366C22.4537 14.3354 23.6004 15.1738 24.637 15.8756L26.4257 17.0863C26.6216 17.2189 26.8784 17.2189 27.0743 17.0863L28.863 15.8756C29.8996 15.1738 31.0463 14.3354 31.9352 13.3366C32.827 12.3343 33.5 11.1244 33.5 9.68727C33.5 7.60403 31.6724 6 29.5271 6C28.4213 6 27.4483 6.51851 26.75 7.18941C26.0517 6.51851 25.0787 6 23.9729 6Z" fill="black"/>
</svg>
